<svg width="1664" height="12" viewBox="0 0 1664 12" fill="none" xmlns="http://www.w3.org/2000/svg">
<line x1="0.5" y1="2.18557e-08" x2="0.499999" y2="12" stroke="white"/>
<line x1="296.5" y1="2.18557e-08" x2="296.5" y2="12" stroke="white"/>
<line x1="586.5" y1="2.18557e-08" x2="586.5" y2="12" stroke="white"/>
<line x1="876.5" y1="2.18557e-08" x2="876.5" y2="12" stroke="white"/>
<line x1="1166.5" y1="2.18557e-08" x2="1166.5" y2="12" stroke="white"/>
<line x1="1456.5" y1="2.18557e-08" x2="1456.5" y2="12" stroke="white"/>
<line x1="93.5" y1="2.18557e-08" x2="93.5" y2="12" stroke="white"/>
<line x1="389.5" y1="2.18557e-08" x2="389.5" y2="12" stroke="white"/>
<line x1="679.5" y1="2.18557e-08" x2="679.5" y2="12" stroke="white"/>
<line x1="969.5" y1="2.18557e-08" x2="969.5" y2="12" stroke="white"/>
<line x1="1259.5" y1="2.18557e-08" x2="1259.5" y2="12" stroke="white"/>
<line x1="1549.5" y1="2.18557e-08" x2="1549.5" y2="12" stroke="white"/>
<line x1="22.5" y1="2.18557e-08" x2="22.5" y2="12" stroke="white"/>
<line x1="318.5" y1="2.18557e-08" x2="318.5" y2="12" stroke="white"/>
<line x1="608.5" y1="2.18557e-08" x2="608.5" y2="12" stroke="white"/>
<line x1="898.5" y1="2.18557e-08" x2="898.5" y2="12" stroke="white"/>
<line x1="1188.5" y1="2.18557e-08" x2="1188.5" y2="12" stroke="white"/>
<line x1="1478.5" y1="2.18557e-08" x2="1478.5" y2="12" stroke="white"/>
<line x1="115.5" y1="2.18557e-08" x2="115.5" y2="12" stroke="white"/>
<line x1="411.5" y1="2.18557e-08" x2="411.5" y2="12" stroke="white"/>
<line x1="701.5" y1="2.18557e-08" x2="701.5" y2="12" stroke="white"/>
<line x1="991.5" y1="2.18557e-08" x2="991.5" y2="12" stroke="white"/>
<line x1="1281.5" y1="2.18557e-08" x2="1281.5" y2="12" stroke="white"/>
<line x1="1571.5" y1="2.18557e-08" x2="1571.5" y2="12" stroke="white"/>
<line x1="186.5" y1="2.18557e-08" x2="186.5" y2="12" stroke="white"/>
<line x1="207.5" y1="2.18557e-08" x2="207.5" y2="12" stroke="white"/>
<line x1="228.5" y1="2.18557e-08" x2="228.5" y2="12" stroke="white"/>
<line x1="482.5" y1="2.18557e-08" x2="482.5" y2="12" stroke="white"/>
<line x1="772.5" y1="2.18557e-08" x2="772.5" y2="12" stroke="white"/>
<line x1="1062.5" y1="2.18557e-08" x2="1062.5" y2="12" stroke="white"/>
<line x1="1352.5" y1="2.18557e-08" x2="1352.5" y2="12" stroke="white"/>
<line x1="1642.5" y1="2.18557e-08" x2="1642.5" y2="12" stroke="white"/>
<line x1="503.5" y1="2.18557e-08" x2="503.5" y2="12" stroke="white"/>
<line x1="793.5" y1="2.18557e-08" x2="793.5" y2="12" stroke="white"/>
<line x1="1083.5" y1="2.18557e-08" x2="1083.5" y2="12" stroke="white"/>
<line x1="1373.5" y1="2.18557e-08" x2="1373.5" y2="12" stroke="white"/>
<line x1="1663.5" y1="2.18557e-08" x2="1663.5" y2="12" stroke="white"/>
<line x1="524.5" y1="2.18557e-08" x2="524.5" y2="12" stroke="white"/>
<line x1="814.5" y1="2.18557e-08" x2="814.5" y2="12" stroke="white"/>
<line x1="1104.5" y1="2.18557e-08" x2="1104.5" y2="12" stroke="white"/>
<line x1="1394.5" y1="2.18557e-08" x2="1394.5" y2="12" stroke="white"/>
</svg>
