<svg width="177" height="37" viewBox="0 0 177 37" fill="none" xmlns="http://www.w3.org/2000/svg">
<path d="M47.443 29.3416C45.7161 29.3416 44.2644 29.038 43.0878 28.4307C41.9113 27.8234 40.9434 27.0169 40.1844 26.0111L42.2339 24.047C42.993 24.9579 43.7995 25.6316 44.6534 26.0681C45.5074 26.4856 46.4752 26.6943 47.5569 26.6943C48.8094 26.6943 49.7677 26.4096 50.4319 25.8403C51.1151 25.271 51.4567 24.455 51.4567 23.3923C51.4567 22.5384 51.21 21.8836 50.7166 21.4282C50.2232 20.9538 49.3787 20.6122 48.1832 20.4034L46.0198 20.0619C45.0709 19.91 44.2739 19.6633 43.6287 19.3218C42.9835 18.9612 42.4616 18.5437 42.0631 18.0693C41.6646 17.5759 41.3704 17.035 41.1807 16.4468C41.0099 15.8395 40.9245 15.2038 40.9245 14.5396C40.9245 12.6609 41.5317 11.2376 42.7463 10.2698C43.9608 9.28296 45.6308 8.78956 47.7562 8.78956C49.3313 8.78956 50.6691 9.04575 51.7698 9.55812C52.8894 10.0515 53.7908 10.7537 54.474 11.6646L52.4814 13.6571C51.9311 12.993 51.2764 12.4616 50.5173 12.0631C49.7772 11.6456 48.8568 11.4368 47.7562 11.4368C46.5796 11.4368 45.6782 11.693 45.052 12.2054C44.4447 12.6988 44.1411 13.4294 44.1411 14.3972C44.1411 15.2133 44.3783 15.8585 44.8527 16.3329C45.3461 16.7883 46.2095 17.1204 47.443 17.3292L49.5495 17.6992C51.3333 18.0218 52.6332 18.6765 53.4493 19.6633C54.2653 20.6312 54.6733 21.8172 54.6733 23.2215C54.6733 24.1324 54.512 24.9674 54.1894 25.7265C53.8857 26.4856 53.4208 27.1308 52.7945 27.6621C52.1873 28.1935 51.4282 28.611 50.5173 28.9146C49.6254 29.1993 48.6006 29.3416 47.443 29.3416ZM58.3911 14.3118H61.4938V16.8168H61.6646C62.1011 15.9249 62.6799 15.2322 63.401 14.7388C64.1221 14.2265 65.0236 13.9703 66.1052 13.9703C67.8321 13.9703 69.208 14.6155 70.2327 15.9059C71.2575 17.1963 71.7699 19.113 71.7699 21.6559C71.7699 24.1988 71.2575 26.1155 70.2327 27.4059C69.208 28.6964 67.8321 29.3416 66.1052 29.3416C65.0236 29.3416 64.1221 29.0949 63.401 28.6015C62.6799 28.0891 62.1011 27.387 61.6646 26.495H61.4938V34.6931H58.3911V14.3118ZM64.8243 26.8082C66.0009 26.8082 66.9023 26.4476 67.5285 25.7265C68.1737 25.0054 68.4963 24.047 68.4963 22.8515V20.4604C68.4963 19.2648 68.1737 18.3065 67.5285 17.5854C66.9023 16.8642 66.0009 16.5037 64.8243 16.5037C64.3688 16.5037 63.9419 16.5606 63.5434 16.6745C63.1448 16.7883 62.7938 16.9591 62.4901 17.1869C62.1865 17.4146 61.9398 17.6992 61.75 18.0408C61.5792 18.3634 61.4938 18.7525 61.4938 19.2079V24.1039C61.4938 24.5594 61.5792 24.9579 61.75 25.2995C61.9398 25.6221 62.1865 25.8973 62.4901 26.125C62.7938 26.3527 63.1448 26.5235 63.5434 26.6374C63.9419 26.7512 64.3688 26.8082 64.8243 26.8082ZM82.0632 29.3416C80.9436 29.3416 79.9378 29.1613 79.0459 28.8007C78.154 28.4402 77.4044 27.9278 76.7971 27.2636C76.1899 26.5994 75.7249 25.8024 75.4023 24.8725C75.0797 23.9237 74.9184 22.861 74.9184 21.6844C74.9184 20.5078 75.0797 19.4451 75.4023 18.4963C75.7439 17.5474 76.2088 16.7409 76.7971 16.0767C77.4044 15.3935 78.135 14.8717 78.989 14.5111C79.8429 14.1505 80.7918 13.9703 81.8355 13.9703C82.8602 13.9703 83.7901 14.1505 84.6251 14.5111C85.4601 14.8527 86.1717 15.3461 86.76 15.9913C87.3483 16.6365 87.7943 17.4051 88.0979 18.297C88.4205 19.1889 88.5818 20.1757 88.5818 21.2574V22.4245H78.0496V22.9084C78.0496 24.066 78.4102 25.0148 79.1313 25.7549C79.8524 26.4761 80.8487 26.8366 82.1201 26.8366C83.069 26.8366 83.8755 26.6374 84.5397 26.2389C85.2229 25.8214 85.7732 25.271 86.1907 24.5879L88.1263 26.2958C87.6329 27.1497 86.8739 27.8709 85.8491 28.4592C84.8433 29.0474 83.5814 29.3416 82.0632 29.3416ZM81.8355 16.3329C81.2852 16.3329 80.7728 16.4278 80.2984 16.6175C79.8429 16.8073 79.4444 17.0825 79.1028 17.443C78.7802 17.7846 78.524 18.1926 78.3342 18.6671C78.1445 19.1415 78.0496 19.6633 78.0496 20.2327V20.4319H85.4221V20.1473C85.4221 18.9897 85.09 18.0693 84.4258 17.3861C83.7806 16.684 82.9172 16.3329 81.8355 16.3329ZM92.7836 7.9356H95.8863V20.6596H96.0286L98.3343 18.297L102.462 14.3118H106.134L100.185 20.0903L106.789 29H103.06L97.9358 21.8552L95.8863 23.7624V29H92.7836V7.9356ZM116.769 29C115.478 29 114.529 28.6584 113.922 27.9752C113.315 27.2731 113.011 26.3717 113.011 25.271V16.8168H108.485V14.3118H111.702C112.252 14.3118 112.641 14.2075 112.869 13.9987C113.097 13.771 113.211 13.3725 113.211 12.8032V9.13114H116.114V14.3118H122.376V16.8168H116.114V26.495H122.376V29H116.769ZM126.578 26.495H130.478V16.8168H126.578V14.3118H133.581V18.2116H133.752C133.884 17.6992 134.074 17.2058 134.321 16.7314C134.568 16.257 134.881 15.849 135.26 15.5074C135.64 15.1468 136.105 14.8622 136.655 14.6534C137.205 14.4257 137.851 14.3118 138.591 14.3118H140.355V17.2723H137.452C136.313 17.2723 135.384 17.6138 134.662 18.297C133.941 18.9612 133.581 19.8626 133.581 21.0012V26.495H138.904V29H126.578V26.495ZM155.488 29C154.596 29 153.922 28.7723 153.467 28.3168C153.03 27.8614 152.765 27.2636 152.67 26.5235H152.528C152.243 27.4154 151.721 28.1081 150.962 28.6015C150.222 29.0949 149.273 29.3416 148.115 29.3416C146.616 29.3416 145.421 28.9526 144.529 28.1745C143.637 27.3775 143.191 26.2863 143.191 24.901C143.191 23.4777 143.713 22.396 144.757 21.6559C145.819 20.8968 147.442 20.5173 149.624 20.5173H152.442V19.3787C152.442 17.3861 151.389 16.3898 149.283 16.3898C148.334 16.3898 147.565 16.5796 146.977 16.9591C146.389 17.3197 145.895 17.8036 145.497 18.4109L143.646 16.9022C144.064 16.1052 144.766 15.422 145.753 14.8527C146.74 14.2644 148.011 13.9703 149.567 13.9703C151.427 13.9703 152.888 14.4162 153.951 15.3081C155.014 16.2001 155.545 17.4905 155.545 19.1794V26.552H157.395V29H155.488ZM148.998 27.0644C150.004 27.0644 150.829 26.8366 151.474 26.3812C152.12 25.9257 152.442 25.3375 152.442 24.6163V22.4814H149.681C147.442 22.4814 146.322 23.1551 146.322 24.5025V25.0718C146.322 25.736 146.559 26.2389 147.034 26.5804C147.508 26.903 148.163 27.0644 148.998 27.0644ZM160.686 26.495H165.554V10.4406H160.686V7.9356H168.656V26.495H173.524V29H160.686V26.495Z" fill="#ACACAC"/>
<path d="M13.533 3.53125C16.2488 3.53125 18.7764 4.33326 20.8957 5.7104C20.6729 5.80573 20.4529 5.90833 20.2349 6.01583C18.2391 7.00004 16.515 8.45966 15.2188 10.2684C13.9225 12.0774 13.0922 14.1794 12.8017 16.3859C12.5113 18.5923 12.7696 20.8375 13.5536 22.9204C14.3375 25.0029 15.625 26.8599 17.2981 28.3271C17.7913 28.7596 18.3163 29.1503 18.8634 29.5048C17.2274 30.2067 15.426 30.5973 13.533 30.5973C6.05894 30.5973 0 24.5384 0 17.0643C0 9.59019 6.05894 3.53125 13.533 3.53125Z" fill="#ACACAC"/>
<path d="M26.4111 12.9086C26.8335 14.2184 27.066 15.614 27.066 17.0643C27.066 19.3315 26.5038 21.4661 25.5183 23.3433C25.3544 23.3211 25.1897 23.2988 25.0279 23.261C24.188 23.0651 23.4091 22.6638 22.7606 22.0951C22.1126 21.5266 21.6136 20.8079 21.3098 20.0011C21.0059 19.1938 20.9065 18.3219 21.0191 17.4666C21.1318 16.6117 21.4536 15.7975 21.9559 15.0966C22.4584 14.3955 23.1266 13.8305 23.9001 13.449C24.6736 13.0676 25.5286 12.8805 26.3906 12.9086C26.3972 12.9088 26.4045 12.9084 26.4111 12.9086Z" fill="#ACACAC"/>
</svg>
